<svg width="143" height="26" viewBox="0 0 143 26" fill="none" xmlns="http://www.w3.org/2000/svg">
<path fill-rule="evenodd" clip-rule="evenodd" d="M3.12285 8.63965C5.19181 6.73191 7.66995 6.00581 10.4139 6.27344C13.1794 6.54312 15.3963 7.83926 17.0535 10.1562C17.3415 10.5589 17.3458 10.7667 16.8738 11.0146C16.0944 11.424 15.3517 11.909 14.6004 12.374C14.3807 12.5101 14.2591 12.5476 14.076 12.2734C12.7063 10.2229 10.3154 9.39939 7.77129 10.0703C5.53014 10.6615 3.94435 12.5963 3.64629 15.0391C3.40773 16.9945 3.74491 18.7777 4.98027 20.3262C7.17556 23.0772 12.2386 23.0257 14.0955 19.9072C14.2213 19.6961 14.3165 19.6549 14.534 19.791C15.3568 20.3054 16.1849 20.8124 17.0281 21.29C17.3481 21.4714 17.3338 21.623 17.1502 21.9004C15.8297 23.8954 14.0159 25.1379 11.7596 25.7217C11.0214 25.9124 10.268 25.9587 9.42656 25.999C4.41632 26.0682 0.326907 22.1271 0.0232393 16.8555C-0.162662 13.625 0.757357 10.8206 3.12285 8.63965ZM95.2801 8.69629C97.365 6.74226 99.8699 6.00283 102.653 6.27734C105.4 6.54852 107.609 7.83001 109.245 10.1377C109.624 10.673 109.618 10.6782 109.066 11.0117C108.31 11.4686 107.552 11.9214 106.8 12.3838C106.602 12.5052 106.478 12.5675 106.308 12.3008C105.146 10.4785 103.423 9.78236 101.393 9.86621C98.529 9.98458 96.5508 11.7027 95.9412 14.5908C95.3292 17.4914 96.417 20.6415 99.157 21.793C101.152 22.6312 103.115 22.5397 104.973 21.3311C105.49 20.995 105.926 20.5603 106.239 20.0215C106.416 19.7159 106.549 19.6459 106.863 19.8496C107.634 20.3494 108.421 20.8237 109.221 21.2734C109.555 21.4614 109.557 21.6156 109.355 21.918C107.913 24.0733 105.928 25.3404 103.454 25.833C102.877 25.948 102.292 25.9508 101.737 25.999C96.5905 26.0372 92.55 22.1283 92.241 16.833C92.0552 13.645 92.9626 10.8684 95.2801 8.69629ZM30.4978 6.20508C35.7324 6.2533 39.9344 10.6872 39.9002 16.127C39.8653 21.6506 35.6117 26.0428 30.3416 25.998C25.0206 25.9528 20.8151 21.5372 20.8621 16.0449C20.91 10.4943 25.1583 6.15596 30.4978 6.20508ZM48.3055 6.48047C51.5476 5.52761 54.9021 6.98495 56.5203 10.0332C56.6887 10.3505 56.7336 10.5157 56.3572 10.7168C55.5802 11.1316 54.8284 11.601 54.0867 12.0811C53.7774 12.2809 53.6586 12.2258 53.4871 11.9023C52.6181 10.2616 51.181 9.58254 49.4197 9.94141C48.5809 10.1123 47.9424 10.7004 47.8279 11.4072C47.6861 12.2854 47.9696 12.873 48.7967 13.3916C49.4639 13.8098 50.2027 14.0538 50.9383 14.3018C52.0497 14.6766 53.1687 15.0281 54.2293 15.5488C56.3735 16.602 57.4354 18.3128 57.2244 20.792C57.0296 23.0774 55.8047 24.559 53.7937 25.4111C52.7769 25.8421 51.7069 25.9723 50.3641 25.9902C48.2404 25.9618 46.1115 25.3121 44.5281 23.335C44.1208 22.8263 43.8139 22.2558 43.5555 21.6514C43.4412 21.3839 43.4702 21.2499 43.7225 21.1025C44.56 20.6139 45.3897 20.1094 46.2098 19.5898C46.4539 19.4354 46.5553 19.4823 46.658 19.7402C47.7379 22.4513 50.6249 22.6795 52.4432 22.0215C53.1092 21.7804 53.5247 21.2984 53.615 20.5488C53.7107 19.7519 53.3957 19.17 52.7527 18.7578C52.0594 18.3128 51.2898 18.0549 50.5174 17.8076C49.4166 17.4554 48.3025 17.142 47.2586 16.625C45.5931 15.8004 44.4062 14.564 44.2205 12.5781C43.9388 9.56647 45.4717 7.31328 48.3055 6.48047ZM75.9002 6.59082L78.3768 6.59375C78.8128 6.57391 78.9449 6.67196 78.9422 7.1582C78.9197 11.3885 78.9214 23.4044 78.9373 25.1816C78.9401 25.5192 78.8684 25.6351 78.5203 25.624L75.8875 25.625C75.4527 25.6424 75.3131 25.5492 75.3162 25.0576C75.3408 21.3962 75.3299 17.7348 75.3299 14.0732V13.3408C75.163 13.6116 75.0748 13.7485 74.993 13.8887C73.4772 16.4854 71.9624 19.083 70.4471 21.6797C70.2696 21.9837 70.1325 22.1407 69.9832 22.1533C69.8488 22.1405 69.712 21.9835 69.535 21.6797C68.0194 19.083 66.5046 16.4854 64.9891 13.8887C64.9071 13.7485 64.819 13.6116 64.6521 13.3408V14.0732C64.6521 17.7348 64.6414 21.3962 64.6658 25.0576C64.6691 25.5494 64.5288 25.6425 64.0936 25.625L61.4617 25.624C61.1137 25.6351 61.0417 25.5192 61.0447 25.1816C61.0606 23.4044 61.0624 11.3885 61.0398 7.1582C61.0372 6.67196 61.169 6.57391 61.6053 6.59375L64.0818 6.59082C64.6209 6.55669 64.8956 6.76549 65.1629 7.23438C66.7387 9.99886 68.3501 12.7417 69.991 15.5625C71.6317 12.7417 73.2433 9.99885 74.8191 7.23438C75.0866 6.76557 75.3612 6.55669 75.9002 6.59082ZM86.9695 6.59473C87.3167 6.58504 87.3909 6.70312 87.3895 7.04199C87.3777 10.0806 87.3826 13.1194 87.3826 16.1582C87.3826 19.126 87.3692 22.0942 87.3963 25.0615C87.4008 25.5533 87.2584 25.6418 86.827 25.625C85.9335 25.5902 85.0377 25.6025 84.1434 25.6211C83.8509 25.6273 83.765 25.5397 83.7654 25.2354C83.7733 19.158 83.7738 13.0803 83.7635 7.00293C83.7629 6.65494 83.8815 6.5919 84.1824 6.59766C85.111 6.61536 86.0411 6.62075 86.9695 6.59473ZM121.801 6.59863C122.093 6.59522 122.25 6.65808 122.358 6.98047C124.401 13.0569 126.457 19.1281 128.519 25.1973C128.621 25.4964 128.66 25.6324 128.263 25.623C127.197 25.5981 126.13 25.601 125.063 25.624C124.777 25.6302 124.682 25.5058 124.607 25.2637C124.327 24.3544 124.027 23.451 123.751 22.54C123.672 22.281 123.557 22.1877 123.283 22.1895C122.187 22.1961 121.091 22.1992 119.995 22.1992C118.899 22.1992 117.803 22.1961 116.707 22.1895C116.433 22.1879 116.317 22.2812 116.239 22.54C115.964 23.451 115.663 24.3544 115.383 25.2637C115.308 25.5057 115.214 25.6302 114.928 25.624C113.861 25.601 112.793 25.5981 111.726 25.623C111.33 25.6324 111.37 25.4964 111.471 25.1973C113.533 19.1282 115.589 13.0568 117.632 6.98047C117.74 6.65811 117.897 6.59523 118.189 6.59863H121.801ZM135.442 6.59277C135.883 6.57336 136.011 6.67876 136.01 7.16309C135.988 11.8542 135.997 16.5453 135.997 21.2363C135.997 21.3429 136.01 21.4512 135.995 21.5557C135.942 21.9349 136.103 22.032 136.458 22.0293C138.436 22.0131 140.415 22.0429 142.392 22.0068C142.908 21.9974 143.021 22.1534 142.997 22.6533C142.955 23.5218 142.975 24.3942 142.991 25.2646C142.996 25.5399 142.924 25.6219 142.65 25.6211C139.347 25.6113 136.044 25.6082 132.741 25.624C132.363 25.6257 132.383 25.4293 132.384 25.165C132.387 22.1446 132.386 19.124 132.386 16.1035C132.386 13.1005 132.393 10.0968 132.376 7.09375C132.373 6.6914 132.476 6.58044 132.863 6.59473C133.722 6.62607 134.584 6.63051 135.442 6.59277ZM30.3904 9.84277C27.0159 9.82908 24.4555 12.5328 24.4568 16.1084C24.4583 19.6661 26.988 22.3168 30.3768 22.3125C33.769 22.308 36.2862 19.6587 36.282 16.0967C36.2777 12.5313 33.7576 9.85643 30.3904 9.84277ZM118.099 16.7842C117.931 17.3036 117.761 17.823 117.591 18.3418C117.514 18.5741 117.538 18.6883 117.829 18.6855C118.551 18.6785 119.273 18.6756 119.995 18.6758C120.717 18.6756 121.44 18.6785 122.162 18.6855C122.452 18.6882 122.477 18.574 122.4 18.3418C122.229 17.823 122.059 17.3036 121.89 16.7842C121.272 14.8754 120.654 12.9663 119.995 10.9297C119.335 12.9662 118.718 14.8754 118.099 16.7842ZM85.5799 0C85.5799 0 86.2809 1.86347 88.1492 2.65332C86.2809 3.44317 85.5799 5.30664 85.5799 5.30664C85.5723 5.2866 84.8696 3.43891 83.0115 2.65332C84.8699 1.86763 85.5725 0.0195535 85.5799 0Z" fill="white"/>
</svg>
